#!OML:ASF H:\Terrain\Patient Classification 1\Takeo\Monday\TakeoMonday.ASF
:FULLY-SPECIFIED
:DEGREES
323
root 5.93947 17.5161 3.43448 5.67309 83.344 9.84189
lowerback 7.20052 -5.49282 -0.493344
upperback 2.35762 -7.35166 -3.74791
thorax -2.00713 -3.63339 -2.92322
lowerneck -3.63539 -8.15848 -6.51172
upperneck 2.16132 -10.5691 1.01534
head 1.71457 -5.30717 1.10061
rclavicle -7.88678e-014 1.35174e-014
rhumerus -21.522 -25.9978 -1.64908
rradius 43.8522
rwrist -12.386
rhand -48.5481 23.92
rfingers 7.12502
rthumb -21.195 -4.94134
lclavicle -7.88678e-014 1.35174e-014
lhumerus -42.5228 13.2692 47.2307
lradius 87.8066
lwrist 26.844
lhand -30.4056 22.9274
lfingers 7.12502
lthumb -3.70914 52.8749
rfemur -8.12386 7.85084 20.5839
rtibia 33.2365
rfoot -19.7318 -7.81922
rtoes 3.07336
lfemur 6.33521 3.87805 -6.02908
ltibia 24.9789
lfoot -8.4704 16.3201
ltoes -14.1797
324
root 5.93179 17.5248 3.42585 6.71847 83.4624 10.9328
lowerback 7.22582 -5.43398 -0.596902
upperback 2.41359 -7.27662 -3.76643
thorax -1.94896 -3.5942 -2.89398
lowerneck -3.32771 -8.31246 -6.178
upperneck 1.709 -10.8062 0.755926
head 1.48427 -5.41974 0.980972
rclavicle -4.8255e-014 -3.97569e-014
rhumerus -21.7777 -25.2236 -2.60805
rradius 44.828
rwrist -12.8238
rhand -47.9488 24.6947
rfingers 7.12502
rthumb -20.6192 -4.23016
lclavicle -4.8255e-014 -3.97569e-014
lhumerus -41.5157 12.6548 48.6406
lradius 87.4995
lwrist 26.7309
lhand -30.6328 23.4281
lfingers 7.12502
lthumb -3.92859 53.3716
rfemur -7.99132 7.73113 20.3773
rtibia 33.1256
rfoot -19.5024 -7.23604
rtoes 5.68426
lfemur 6.22843 4.23633 -6.06841
ltibia 25.206
lfoot -8.86545 16.1087
ltoes -12.4589
325
root 5.92025 17.5241 3.41995 6.54364 83.5853 10.8968
lowerback 7.40326 -5.44888 -0.607895
upperback 2.49305 -7.29589 -3.78917
thorax -1.96734 -3.60174 -2.89672
lowerneck -3.63074 -8.29917 -6.34559
upperneck 1.98497 -10.7676 1.03455
head 1.65449 -5.40163 1.07601
rclavicle 8.50301e-014 4.77083e-014
rhumerus -21.8804 -24.5145 -3.8608
rradius 45.8302
rwrist -13.1819
rhand -47.4857 25.6414
rfingers 7.12502
rthumb -20.1742 -3.33105
lclavicle 8.50301e-014 4.77083e-014
lhumerus -40.5334 11.9925 49.8662
lradius 87.0623
lwrist 26.3496
lhand -30.6655 23.5932
lfingers 7.12502
lthumb -3.96008 53.5362
rfemur -7.8841 7.51043 20.4188
rtibia 33.0562
rfoot -19.1741 -7.39694
rtoes 5.22216
lfemur 6.22253 4.89274 -5.8501
ltibia 25.3046
lfoot -8.6633 15.839
ltoes -11.9629
326
root 5.90713 17.5207 3.41338 1.89247 83.7458 6.21628
lowerback 7.49708 -5.45071 -0.118438
upperback 2.47869 -7.26733 -3.6092
thorax -2.0697 -3.59071 -2.97174
lowerneck -3.83045 -8.24625 -6.89779
upperneck 2.23632 -10.6764 1.64245
head 1.84474 -5.35443 1.34579
rclavicle -3.11098e-014 5.08889e-014
rhumerus -21.9995 -23.4507 -4.92282
rradius 46.923
rwrist -13.5545
rhand -47.352 25.1072
rfingers 7.12502
rthumb -20.0457 -3.87879
lclavicle -3.11098e-014 5.08889e-014
lhumerus -39.9258 11.088 51.1159
lradius 86.9427
lwrist 26.3303
lhand -31.1917 23.5473
lfingers 7.12502
lthumb -4.46825 53.4802
rfemur -7.89772 7.26359 21.0011
rtibia 32.8649
rfoot -18.9423 -7.6327
rtoes 4.56825
lfemur 5.99512 5.5949 -5.04238
ltibia 25.4924
lfoot -8.40099 15.368
ltoes -13.2781
327
root 5.89345 17.5218 3.4033 -1.85087 83.9399 2.39823
lowerback 7.51387 -5.37002 0.269498
upperback 2.46753 -7.13267 -3.43466
thorax -2.10783 -3.5262 -3.01606
lowerneck -3.67686 -8.31916 -7.19832
upperneck 2.10629 -10.7872 2.07522
head 1.82922 -5.40411 1.53664
rclavicle -3.27995e-014 -1.82882e-014
rhumerus -22.3414 -22.2185 -5.77193
rradius 47.9977
rwrist -14.099
rhand -47.3737 24.8025
rfingers 7.12502
rthumb -20.0665 -4.18128
lclavicle -3.27995e-014 -1.82882e-014
lhumerus -39.1073 10.1166 52.5952
lradius 86.9085
lwrist 26.4616
lhand -31.9653 24.3635
lfingers 7.12502
lthumb -5.21526 54.2794
rfemur -7.80777 7.37067 21.412
rtibia 32.589
rfoot -18.9704 -7.60698
rtoes 5.91298
lfemur 5.59387 5.9576 -4.53387
ltibia 25.8133
lfoot -7.99621 15.1596
ltoes -15.8175
328
root 5.8755 17.5257 3.39239 -1.84326 84.3018 2.37669
lowerback 7.56624 -5.29249 0.246798
upperback 2.49886 -7.02862 -3.41091
thorax -2.09258 -3.47313 -2.98695
lowerneck -3.60494 -8.44113 -7.2169
upperneck 1.92673 -10.9626 2.2852
head 1.78194 -5.48622 1.60544
rclavicle -5.3324e-014 -1.82882e-014
rhumerus -22.8085 -21.2131 -6.72995
rradius 49.0078
rwrist -14.5922
rhand -47.2724 25.8131
rfingers 7.12502
rthumb -19.9691 -3.18084
lclavicle -5.3324e-014 -1.82882e-014
lhumerus -37.9957 9.02102 54.1665
lradius 86.6501
lwrist 26.237
lhand -32.0026 24.8537
lfingers 7.12502
lthumb -5.25122 54.7687
rfemur -7.69879 7.58845 21.4258
rtibia 32.316
rfoot -18.9842 -8.07202
rtoes 5.47843
lfemur 5.15473 6.16582 -4.55124
ltibia 26.1666
lfoot -7.8726 15.0703
ltoes -16.0405
329
root 5.85276 17.5222 3.38122 -2.96527 84.8141 1.20796
lowerback 7.56454 -5.3083 0.239133
upperback 2.5629 -7.04541 -3.35283
thorax -2.01807 -3.48014 -2.92533
lowerneck -3.51385 -8.4406 -7.07886
upperneck 1.64141 -10.9782 2.37401
head 1.67041 -5.48815 1.62028
rclavicle 4.78077e-014 1.98785e-014
rhumerus -23.2488 -20.3353 -7.88691
rradius 50.1812
rwrist -14.9335
rhand -47.3633 26.6832
rfingers 7.12502
rthumb -20.0565 -2.30164
lclavicle 4.78077e-014 1.98785e-014
lhumerus -37.0959 7.78661 55.6238
lradius 86.4507
lwrist 26.0871
lhand -31.1762 24.4963
lfingers 7.12502
lthumb -4.45326 54.4295
rfemur -7.77093 7.36541 21.5746
rtibia 32.1689
rfoot -18.8074 -8.76319
rtoes 3.10804
lfemur 4.73634 6.37222 -4.4118
ltibia 26.4183
lfoot -8.28549 14.7389
ltoes -14.0853
330
root 5.83393 17.5158 3.37084 -3.28634 85.2657 0.765318
lowerback 7.34931 -5.36074 0.0934496
upperback 2.67762 -7.1157 -3.29075
thorax -1.75906 -3.51308 -2.80252
lowerneck -3.62322 -8.34284 -6.95323
upperneck 1.52357 -10.8465 2.4061
head 1.63884 -5.41872 1.61316
rclavicle 3.23025e-014 1.51076e-014
rhumerus -23.4243 -19.8728 -9.26646
rradius 51.3302
rwrist -14.917
rhand -47.642 27.6891
rfingers 7.12502
rthumb -20.3244 -1.26741
lclavicle 3.23025e-014 1.51076e-014
lhumerus -36.2923 6.79061 56.9589
lradius 86.2825
lwrist 26.1673
lhand -30.5849 24.0594
lfingers 7.12502
lthumb -3.88232 54.0038
rfemur -8.00714 6.80857 21.5509
rtibia 32.1666
rfoot -18.5965 -9.04762
rtoes 0.730603
lfemur 4.31705 6.69479 -4.36973
ltibia 26.5788
lfoot -8.46925 14.4387
ltoes -13.7937
331
root 5.81991 17.5209 3.35714 1.0241 85.6421 4.89671
lowerback 7.23292 -5.35943 -0.185657
upperback 2.63124 -7.13292 -3.3733
thorax -1.72037 -3.52139 -2.7417
lowerneck -3.88648 -8.36609 -7.09806
upperneck 1.85967 -10.858 2.55314
head 1.81548 -5.42623 1.66489
rclavicle 8.59744e-015 -4.77083e-015
rhumerus -23.7066 -19.143 -10.6153
rradius 52.3563
rwrist -14.9814
rhand -47.7418 28.7435
rfingers 7.12502
rthumb -20.4203 -0.202778
lclavicle 8.59744e-015 -4.77083e-015
lhumerus -35.5134 5.75871 58.3303
lradius 85.882
lwrist 26.2405
lhand -29.8765 23.3727
lfingers 7.12502
lthumb -3.19816 53.3284
rfemur -8.29598 6.12066 21.0051
rtibia 32.2885
rfoot -18.6788 -8.58479
rtoes 0.940876
lfemur 3.90254 7.2086 -4.72709
ltibia 26.6305
lfoot -8.32829 14.3206
ltoes -14.3974
